<svg width="1200" height="630" viewBox="0 0 1200 630" fill="none" xmlns="http://www.w3.org/2000/svg">
  <defs>
    <linearGradient id="bg" x1="65" y1="45" x2="1110" y2="595" gradientUnits="userSpaceOnUse">
      <stop stop-color="#FAF8FF"/>
      <stop offset="0.45" stop-color="#F6F4FF"/>
      <stop offset="1" stop-color="#FDFDFF"/>
    </linearGradient>
    <radialGradient id="glowLeft" cx="0" cy="0" r="1" gradientUnits="userSpaceOnUse" gradientTransform="translate(148 524) rotate(14.312) scale(210 154)">
      <stop stop-color="#FDE7C7" stop-opacity="0.55"/>
      <stop offset="1" stop-color="#FDE7C7" stop-opacity="0"/>
    </radialGradient>
    <radialGradient id="glowTop" cx="0" cy="0" r="1" gradientUnits="userSpaceOnUse" gradientTransform="translate(270 46) rotate(8.2) scale(420 180)">
      <stop stop-color="#DAD3FF" stop-opacity="0.4"/>
      <stop offset="1" stop-color="#DAD3FF" stop-opacity="0"/>
    </radialGradient>
    <radialGradient id="cardGlow" cx="0" cy="0" r="1" gradientUnits="userSpaceOnUse" gradientTransform="translate(940 235) rotate(128.5) scale(390 335)">
      <stop stop-color="#FFFFFF" stop-opacity="0.9"/>
      <stop offset="1" stop-color="#FFFFFF" stop-opacity="0.25"/>
    </radialGradient>
    <filter id="shadow" x="646" y="84" width="457" height="464" filterUnits="userSpaceOnUse" color-interpolation-filters="sRGB">
      <feFlood flood-opacity="0" result="BackgroundImageFix"/>
      <feColorMatrix in="SourceAlpha" type="matrix" values="0 0 0 0 0 0 0 0 0 0 0 0 0 0 0 0 0 0 127 0" result="hardAlpha"/>
      <feOffset dy="18"/>
      <feGaussianBlur stdDeviation="20"/>
      <feComposite in2="hardAlpha" operator="out"/>
      <feColorMatrix type="matrix" values="0 0 0 0 0.447059 0 0 0 0 0.403922 0 0 0 0 0.639216 0 0 0 0.12 0"/>
      <feBlend mode="normal" in2="BackgroundImageFix" result="effect1_dropShadow_0_1"/>
      <feBlend mode="normal" in="SourceGraphic" in2="effect1_dropShadow_0_1" result="shape"/>
    </filter>
    <filter id="softBlur" x="0" y="0" width="1200" height="630" filterUnits="userSpaceOnUse" color-interpolation-filters="sRGB">
      <feGaussianBlur stdDeviation="1.5"/>
    </filter>
  </defs>

  <rect width="1200" height="630" rx="24" fill="url(#bg)"/>
  <rect width="1200" height="630" rx="24" fill="url(#glowTop)"/>
  <rect width="1200" height="630" rx="24" fill="url(#glowLeft)"/>

  <g opacity="0.85">
    <circle cx="34" cy="515" r="3.5" fill="#F4C7C3"/>
    <circle cx="52" cy="530" r="4.5" fill="#E8C8FB"/>
    <circle cx="72" cy="547" r="6" fill="#F6E2A6"/>
    <circle cx="95" cy="525" r="5" fill="#C7E5D5"/>
    <circle cx="112" cy="506" r="4" fill="#DCCEFF"/>
    <circle cx="67" cy="490" r="4" fill="#FDE1EE"/>
  </g>

  <g opacity="0.9">
    <rect x="930" y="40" width="10" height="10" rx="2" transform="rotate(45 930 40)" fill="#D9C7FF"/>
    <rect x="962" y="25" width="12" height="12" rx="2" transform="rotate(45 962 25)" fill="#FFD97E"/>
    <rect x="989" y="43" width="8" height="8" rx="2" transform="rotate(45 989 43)" fill="#FBD2E7"/>
    <rect x="1015" y="30" width="11" height="11" rx="2" transform="rotate(45 1015 30)" fill="#CFE7FF"/>
    <rect x="1040" y="44" width="9" height="9" rx="2" transform="rotate(45 1040 44)" fill="#C7EFD9"/>
    <circle cx="1082" cy="67" r="3.5" fill="#C5EED8"/>
    <circle cx="1115" cy="75" r="4.5" fill="#C5EED8"/>
    <circle cx="1140" cy="67" r="3.5" fill="#C5EED8"/>
    <circle cx="1100" cy="50" r="4" fill="#C5EED8"/>
  </g>

  <g opacity="0.65" filter="url(#softBlur)">
    <path d="M178 555L182 567L194 571L182 575L178 587L174 575L162 571L174 567L178 555Z" fill="#CDB8FF"/>
    <path d="M658 68L661 77L670 80L661 83L658 92L655 83L646 80L655 77L658 68Z" fill="#DACFFF"/>
    <path d="M139 473L142 481L150 484L142 487L139 495L136 487L128 484L136 481L139 473Z" fill="#EFD8A0"/>
  </g>

  <text x="74" y="125" fill="#2A2840" font-size="72" font-style="italic" font-weight="600" font-family="Georgia, Times New Roman, serif">Imanifest</text>
  <text x="74" y="178" fill="#17141F" font-size="28" font-weight="700" font-family="Georgia, Times New Roman, serif">Imanifest : Islamic Law Of Attraction</text>

  <text x="74" y="235" fill="#131019" font-size="50" font-weight="400" font-family="Arial, Helvetica, sans-serif">Spiritual Mindfulness,</text>
  <text x="74" y="302" fill="#131019" font-size="50" font-weight="400" font-family="Arial, Helvetica, sans-serif">Daily Intentions.</text>

  <text x="74" y="392" fill="#232029" font-size="28" font-weight="400" font-family="Arial, Helvetica, sans-serif">Your companion for a peaceful heart</text>
  <text x="74" y="432" fill="#232029" font-size="28" font-weight="400" font-family="Arial, Helvetica, sans-serif">and focused faith. Set daily goals,</text>
  <text x="74" y="472" fill="#232029" font-size="28" font-weight="400" font-family="Arial, Helvetica, sans-serif">reflect, and find tranquil audio.</text>

  <g filter="url(#shadow)">
    <rect x="686" y="106" width="377" height="384" rx="28" fill="white" fill-opacity="0.58"/>
    <rect x="686.75" y="106.75" width="375.5" height="382.5" rx="27.25" stroke="white" stroke-opacity="0.85" stroke-width="1.5"/>
    <rect x="686" y="106" width="377" height="384" rx="28" fill="url(#cardGlow)"/>
  </g>

  <text x="720" y="167" fill="#16131C" font-size="28" font-weight="700" font-family="Georgia, Times New Roman, serif">Quick Access</text>

  <g>
    <rect x="720" y="190" width="128" height="130" rx="26" fill="#FFDDEA"/>
    <rect x="720.75" y="190.75" width="126.5" height="128.5" rx="25.25" stroke="white" stroke-opacity="0.8" stroke-width="1.5"/>
    <rect x="870" y="190" width="128" height="130" rx="26" fill="#E7DEFF"/>
    <rect x="870.75" y="190.75" width="126.5" height="128.5" rx="25.25" stroke="white" stroke-opacity="0.8" stroke-width="1.5"/>
    <rect x="720" y="338" width="128" height="130" rx="26" fill="#FFF3C9"/>
    <rect x="720.75" y="338.75" width="126.5" height="128.5" rx="25.25" stroke="white" stroke-opacity="0.8" stroke-width="1.5"/>
    <rect x="870" y="338" width="128" height="130" rx="26" fill="#CFF7D9"/>
    <rect x="870.75" y="338.75" width="126.5" height="128.5" rx="25.25" stroke="white" stroke-opacity="0.8" stroke-width="1.5"/>
  </g>

  <g>
    <rect x="760" y="221" width="48" height="48" rx="16" fill="#FFC2DB"/>
    <path d="M784 248C792 243 796 238.5 796 232.5C796 227.5 792.5 224 788 224C785 224 782.5 225.5 781 228C779.5 225.5 777 224 774 224C769.5 224 766 227.5 766 232.5C766 238.5 770 243 778 248L781 250L784 248Z" fill="#D92C80"/>

    <rect x="910" y="221" width="48" height="48" rx="16" fill="#E8D9FF"/>
    <path d="M934 225L938.2 236.3L949.5 240.5L938.2 244.7L934 256L929.8 244.7L918.5 240.5L929.8 236.3L934 225Z" fill="#6F2BDE"/>
    <path d="M946.5 223L947.9 226.6L951.5 228L947.9 229.4L946.5 233L945.1 229.4L941.5 228L945.1 226.6L946.5 223Z" fill="#A869FF"/>

    <rect x="760" y="369" width="48" height="48" rx="16" fill="#FFE48A"/>
    <path d="M775 389.5L779 393.5L787 385.5" stroke="#9D6A00" stroke-width="3.5" stroke-linecap="round" stroke-linejoin="round"/>
    <path d="M791 388H799" stroke="#9D6A00" stroke-width="3.5" stroke-linecap="round"/>
    <path d="M791 397H799" stroke="#9D6A00" stroke-width="3.5" stroke-linecap="round"/>
    <path d="M791 406H799" stroke="#9D6A00" stroke-width="3.5" stroke-linecap="round"/>

    <rect x="910" y="369" width="48" height="48" rx="16" fill="#AEEFC5"/>
    <circle cx="934" cy="383" r="5.5" fill="#047857"/>
    <rect x="924" y="390" width="20" height="10" rx="5" fill="#047857"/>
    <rect x="918" y="401" width="32" height="7" rx="3.5" fill="#047857"/>
    <rect x="913" y="411" width="42" height="5" rx="2.5" fill="#047857"/>
  </g>

  <g fill="#15121B">
    <text x="784" y="292" text-anchor="middle" font-size="15" font-weight="800" font-family="Arial, Helvetica, sans-serif">QALB</text>
    <text x="784" y="314" text-anchor="middle" font-size="14" font-family="Georgia, Times New Roman, serif">Check-in with your spirit</text>

    <text x="934" y="292" text-anchor="middle" font-size="15" font-weight="800" font-family="Arial, Helvetica, sans-serif">IMANIFEST</text>
    <text x="934" y="314" text-anchor="middle" font-size="14" font-family="Georgia, Times New Roman, serif">Set your daily intention</text>

    <text x="784" y="440" text-anchor="middle" font-size="15" font-weight="800" font-family="Arial, Helvetica, sans-serif">DUA-TO-DO</text>
    <text x="784" y="462" text-anchor="middle" font-size="14" font-family="Georgia, Times New Roman, serif">Act on your manifestations</text>

    <text x="934" y="440" text-anchor="middle" font-size="15" font-weight="800" font-family="Arial, Helvetica, sans-serif">TAFAKKUR</text>
    <text x="934" y="462" text-anchor="middle" font-size="14" font-family="Georgia, Times New Roman, serif">Find tranquility in Quran</text>
    <text x="934" y="480" text-anchor="middle" font-size="14" font-family="Georgia, Times New Roman, serif">audio</text>
  </g>

  <text x="600" y="585" text-anchor="middle" fill="#76727C" font-size="34" font-weight="400" font-family="Arial, Helvetica, sans-serif">imanifestapp.com</text>
</svg>